#!OML:ASF H:\Terrain\Patient Classification 1\Walking\liu\liu.ASF
:FULLY-SPECIFIED
:DEGREES
174
root 8.91857 15.951 1.11698 9.6217 -7.73705 3.84414
lowerback -3.96879 4.2167 -8.68689
upperback -0.716785 5.9723 0.81346
thorax 0.50214 2.99085 5.90585
lowerneck -20.3244 -6.52134 -14.3441
upperneck 14.7435 -7.2788 12.8383
head 8.98562 -2.95867 5.77574
rclavicle -3.23025e-014 -7.95139e-016
rhumerus -8.97685 35.609 -80.7619
rradius 43.5007
rwrist -18.1066
rhand -31.6213 -20.9014
rfingers 7.12502
rthumb -4.88303 -50.8252
lclavicle -3.23025e-014 -7.95139e-016
lhumerus -70.6391 22.6292 30.8682
lradius 10.6306
lwrist -44.7468
lhand -12.2301 -28.9516
lfingers 7.12502
lthumb 13.8353 0.568305
rfemur 2.40921 -2.66355 11.9559
rtibia 58.6712
rfoot 3.7986 -12.4081
rtoes -11.7023
lfemur -46.0343 5.63298 -29.2306
ltibia 47.9134
lfoot -11.0819 1.54233
ltoes -6.21503
175
root 8.96267 16.005 1.3469 9.47879 -7.79766 3.67592
lowerback -4.14588 4.19236 -7.76109
upperback -0.296776 5.93502 0.637267
thorax 1.15816 2.93017 5.25057
lowerneck -20.6872 -6.52414 -14.1533
upperneck 14.5093 -7.26461 12.8223
head 8.95905 -2.92972 5.73219
rclavicle 8.48811e-014 2.50469e-014
rhumerus -8.89642 34.4382 -81.4244
rradius 42.4155
rwrist -17.4495
rhand -31.1966 -22.3385
rfingers 7.12502
rthumb -4.47301 -52.2713
lclavicle 8.48811e-014 2.50469e-014
lhumerus -68.8192 23.4526 33.6192
lradius 10.6718
lwrist -43.1672
lhand -13.9028 -29.3789
lfingers 7.12502
lthumb 12.2229 0.243953
rfemur 0.186679 -2.98605 12.0677
rtibia 61.8784
rfoot 2.84164 -12.5405
rtoes -14.0402
lfemur -44.6905 5.85326 -29.2603
ltibia 47.5361
lfoot -11.882 1.51814
ltoes -5.86069
176
root 8.98906 16.0707 1.57332 9.65029 -7.60086 3.30998
lowerback -4.43311 4.01843 -7.02945
upperback -0.112592 5.69734 0.710696
thorax 1.60811 2.79179 4.95261
lowerneck -20.9382 -6.4591 -14.0888
upperneck 14.4218 -7.11308 12.6421
head 8.93943 -2.86447 5.67599
rclavicle -1.71949e-014 -8.74653e-015
rhumerus -9.49408 33.932 -82.141
rradius 41.8421
rwrist -18.0142
rhand -30.6753 -23.3383
rfingers 7.12502
rthumb -3.96955 -53.281
lclavicle -1.71949e-014 -8.74653e-015
lhumerus -66.848 23.7561 37.3258
lradius 11.0272
lwrist -39.7293
lhand -13.7764 -29.1132
lfingers 7.12502
lthumb 12.3447 0.502328
rfemur -2.39669 -3.49356 12.6353
rtibia 64.7374
rfoot 1.94444 -12.6886
rtoes -17.0444
lfemur -43.6314 5.81346 -28.9816
ltibia 47.0509
lfoot -12.6452 1.46458
ltoes -6.36265
177
root 9.0124 16.1418 1.80501 9.76121 -7.54872 3.23231
lowerback -4.51511 3.81813 -6.88091
upperback -0.153145 5.42476 0.867291
thorax 1.64698 2.65638 5.02929
lowerneck -21.1735 -6.28936 -14.072
upperneck 14.7284 -6.83195 12.4311
head 9.03336 -2.7461 5.64632
rclavicle -5.76476e-015 -8.74653e-015
rhumerus -10.6424 33.6201 -82.8898
rradius 41.1841
rwrist -18.1399
rhand -30.2942 -23.9029
rfingers 7.12502
rthumb -3.60153 -53.8522
lclavicle -5.76476e-015 -8.74653e-015
lhumerus -64.9933 23.4861 41.4816
lradius 11.194
lwrist -35.8104
lhand -14.7502 -29.627
lfingers 7.12502
lthumb 11.4057 0.0427895
rfemur -4.86021 -3.78821 12.8991
rtibia 67.209
rfoot 0.835769 -12.7408
rtoes -18.8448
lfemur -42.4546 5.77063 -28.9669
ltibia 46.5409
lfoot -13.3928 1.4209
ltoes -6.05105
178
root 9.03976 16.2059 2.02726 9.72859 -7.4606 2.98004
lowerback -4.25339 3.6971 -6.39522
upperback -0.266229 5.21493 1.001
thorax 1.44189 2.56597 4.865
lowerneck -21.2183 -6.11435 -14.1329
upperneck 15.0523 -6.59735 12.4591
head 9.12096 -2.63687 5.71123
rclavicle 3.80673e-014 1.59028e-014
rhumerus -11.987 32.8719 -83.768
rradius 40.4513
rwrist -17.8399
rhand -30.5723 -22.7498
rfingers 7.12502
rthumb -3.8701 -52.6944
lclavicle 3.80673e-014 1.59028e-014
lhumerus -62.7547 22.7916 45.7783
lradius 11.1216
lwrist -31.7596
lhand -15.8386 -30.175
lfingers 7.12502
lthumb 10.3558 -0.449971
rfemur -7.03998 -3.87464 13.4023
rtibia 69.3033
rfoot -0.454815 -12.6882
rtoes -19.4871
lfemur -41.1004 5.6528 -28.7125
ltibia 45.9692
lfoot -13.9432 1.35549
ltoes -4.07532
179
root 9.06184 16.2605 2.24069 9.74727 -7.27649 2.57303
lowerback -4.0005 3.59534 -5.68628
upperback -0.408499 5.02538 1.10041
thorax 1.22928 2.48616 4.54194
lowerneck -20.9786 -5.99303 -14.033
upperneck 15.1641 -6.48829 12.3904
head 9.09487 -2.59522 5.6903
rclavicle 7.25564e-015 1.59028e-015
rhumerus -13.5235 31.8715 -84.7428
rradius 39.919
rwrist -17.7893
rhand -31.1425 -20.7034
rfingers 7.12502
rthumb -4.42078 -50.6373
lclavicle 7.25564e-015 1.59028e-015
lhumerus -60.6297 22.1274 49.556
lradius 11.5222
lwrist -28.6597
lhand -15.8354 -29.8126
lfingers 7.12502
lthumb 10.3589 -0.0877076
rfemur -9.21663 -3.82013 14.2221
rtibia 71.0692
rfoot -1.68071 -12.5378
rtoes -18.9888
lfemur -39.781 5.4839 -28.3146
ltibia 45.2966
lfoot -14.4264 1.4322
ltoes -3.18141
